# xmcd
#
# Track frame offsets:
#	150
#	22575
#	45525
#	67725
#	85500
#	109725
#	123375
#	134175
#	145350
#	173700
#	183075
#	191100
#
# Disc length: 2880 seconds
#
# Revision: 0
# Processed by: cddbd v1.5.2PL0 Copyright (c) Steve Scherf et al.
# Submitted via: EasyCDDAExtractor 11.5.3.1
#
DISCID=9b0b3e0c
DTITLE=South San Gabriel - Dual Hawk
DYEAR=2008
DGENRE=Folkrock
TTITLE0=Emma Jane
TTITLE1=Keep It On The Sly
TTITLE2=When the Angels Will Put Out Their Lights
TTITLE3=Of Evil/For Evil
TTITLE4=My Goodbyes
TTITLE5=Senselessly
TTITLE6=Corner Cross
TTITLE7=Trust To Lose
TTITLE8=The Arc and the Cusp
TTITLE9=Alabama Crusade
TTITLE10=Jornada Del Muerto #20
TTITLE11=From This I Will Awake
EXTD=
EXTT0=
EXTT1=
EXTT2=
EXTT3=
EXTT4=
EXTT5=
EXTT6=
EXTT7=
EXTT8=
EXTT9=
EXTT10=
EXTT11=
PLAYORDER=
